<svg width="28" height="28" viewBox="0 0 28 28" fill="none" xmlns="http://www.w3.org/2000/svg">
<g clip-path="url(#clip0_2052_266)">
<path d="M11.1562 12.4687V8.15149H14.2712C15.974 8.15149 16.9697 8.95124 16.9697 10.3162C16.9697 11.7197 15.9128 12.4687 13.8828 12.4687H11.1562ZM11.1562 19.0522H14.4777C16.5497 19.0522 17.6453 18.2122 17.6453 16.6425C17.6453 15.0937 16.5077 14.2835 14.3447 14.2835H11.1562V19.0522Z" fill="#99744A"/>
<path d="M7.00342 0C5.1469 0 3.36643 0.737498 2.05367 2.05025C0.740916 3.36301 0.00341797 5.14348 0.00341797 7V21C0.00341797 22.8565 0.740916 24.637 2.05367 25.9497C3.36643 27.2625 5.1469 28 7.00342 28H21.0034C22.8599 28 24.6404 27.2625 25.9532 25.9497C27.2659 24.637 28.0034 22.8565 28.0034 21V7C28.0034 5.14348 27.2659 3.36301 25.9532 2.05025C24.6404 0.737498 22.8599 0 21.0034 0L7.00342 0ZM8.85842 21V6.20375H14.8067C17.5839 6.20375 19.2569 7.6195 19.2569 9.89625C19.2569 11.4433 18.1194 12.8275 16.6617 13.0743V13.2493C18.6619 13.454 19.9937 14.8785 19.9937 16.807C19.9937 19.411 18.0967 21 14.9397 21H8.85842Z" fill="#99744A"/>
</g>
<defs>
<clipPath id="clip0_2052_266">
<rect width="28" height="28" fill="white"/>
</clipPath>
</defs>
</svg>
