<svg width="28" height="28" viewBox="0 0 28 28" fill="none" xmlns="http://www.w3.org/2000/svg">
<g clip-path="url(#clip0_2052_190)">
<path fill-rule="evenodd" clip-rule="evenodd" d="M24.5 0C25.4283 0 26.3185 0.368749 26.9749 1.02513C27.6313 1.6815 28 2.57174 28 3.5V24.5C28 25.4283 27.6313 26.3185 26.9749 26.9749C26.3185 27.6313 25.4283 28 24.5 28H3.5C2.57174 28 1.6815 27.6313 1.02513 26.9749C0.368749 26.3185 0 25.4283 0 24.5V0H24.5ZM8.0325 13.1215C6.97317 13.1215 6.12442 13.4178 5.48625 14.0105C4.84808 14.602 4.529 15.4677 4.529 16.6075V22.043C4.529 23.1933 4.83642 24.059 5.45125 24.64C6.06608 25.221 6.88625 25.5115 7.91175 25.5115C8.58375 25.5115 9.17642 25.3808 9.68975 25.1195C10.2148 24.857 10.6248 24.4638 10.92 23.94C11.2175 23.415 11.3657 22.7652 11.3645 21.9905V21.6667H9.2295V21.9748C9.2295 22.4986 9.121 22.897 8.904 23.17C8.687 23.443 8.37958 23.5801 7.98175 23.5813C7.54775 23.5696 7.22283 23.4156 7.007 23.1193C6.79 22.8218 6.6815 22.3831 6.6815 21.8032V16.9505C6.6815 16.3123 6.77833 15.8392 6.972 15.5312C7.1785 15.2233 7.51508 15.0693 7.98175 15.0693C8.35625 15.0693 8.65783 15.2005 8.8865 15.463C9.114 15.7243 9.22775 16.1286 9.22775 16.6758V17.0345H11.3802V16.66C11.3802 15.8737 11.2385 15.218 10.955 14.693C10.6998 14.189 10.2935 13.7772 9.793 13.5153C9.303 13.2528 8.71617 13.1215 8.0325 13.1215ZM15.407 13.104C14.7233 13.104 14.1365 13.2463 13.6465 13.531C13.1723 13.8116 12.7871 14.2204 12.5352 14.7105C12.2626 15.2503 12.1273 15.849 12.1415 16.4535C12.1415 17.332 12.3124 18.0215 12.6543 18.522C13.0089 19.012 13.573 19.439 14.3465 19.803L15.1672 20.1793C15.6806 20.3962 16.0452 20.6471 16.261 20.9318C16.478 21.2164 16.5865 21.5868 16.5865 22.043C16.5865 22.6007 16.4897 23.0107 16.296 23.2733C16.1128 23.5346 15.8048 23.6652 15.372 23.6652C14.952 23.6652 14.6329 23.5229 14.4148 23.2383C14.1989 22.9548 14.0793 22.5161 14.056 21.9223H12.0225C12.0458 23.0843 12.3363 23.9732 12.894 24.5892C13.4528 25.2041 14.2619 25.5115 15.3212 25.5115C16.3806 25.5115 17.2066 25.2093 17.7992 24.605C18.3919 24.0007 18.6882 23.135 18.6882 22.008C18.6882 21.063 18.4946 20.3111 18.1073 19.7522C17.7188 19.1934 17.1092 18.7326 16.2785 18.3697L15.491 18.0267C15.036 17.8331 14.7117 17.6108 14.518 17.36C14.3255 17.1103 14.2287 16.7743 14.2275 16.352C14.2275 15.8853 14.3243 15.5377 14.518 15.309C14.7222 15.0815 15.0185 14.9678 15.407 14.9678C15.827 14.9678 16.1233 15.1042 16.296 15.3772C16.478 15.6502 16.5801 16.0603 16.6023 16.6075H18.5675C18.5325 15.4688 18.242 14.6032 17.696 14.0105C17.15 13.4062 16.387 13.104 15.407 13.104ZM22.5068 13.104C21.8242 13.104 21.2374 13.2463 20.7463 13.531C20.2727 13.8118 19.8881 14.2207 19.6367 14.7105C19.3641 15.2503 19.2288 15.849 19.243 16.4535C19.243 17.332 19.4139 18.0215 19.7557 18.522C20.1092 19.012 20.6733 19.439 21.448 19.803L22.2688 20.1793C22.7798 20.3962 23.1443 20.6471 23.3625 20.9318C23.5783 21.2164 23.6862 21.5868 23.6862 22.043C23.6862 22.6007 23.5894 23.0107 23.3958 23.2733C23.2138 23.5346 22.9063 23.6652 22.4735 23.6652C22.0523 23.6664 21.7332 23.5241 21.5163 23.2383C21.2992 22.9548 21.1797 22.5161 21.1575 21.9223H19.124C19.1473 23.0843 19.4378 23.9732 19.9955 24.5892C20.5543 25.2041 21.3628 25.5115 22.421 25.5115C23.4815 25.5115 24.3081 25.2093 24.9007 24.605C25.4923 24.0018 25.788 23.1362 25.788 22.008C25.788 21.063 25.5943 20.3111 25.207 19.7522C24.8197 19.1934 24.2101 18.7326 23.3783 18.3697L22.5925 18.0267C22.1375 17.8331 21.8132 17.6108 21.6195 17.36C21.4258 17.1103 21.329 16.7743 21.329 16.352C21.329 15.8853 21.4252 15.5377 21.6178 15.309C21.8242 15.0815 22.1206 14.9678 22.5068 14.9678C22.9279 14.9678 23.2243 15.1042 23.3958 15.3772C23.5778 15.6502 23.6804 16.0603 23.7038 16.6075H25.669C25.634 15.4688 25.3435 14.6032 24.7975 14.0105C24.2492 13.4062 23.4856 13.104 22.5068 13.104Z" fill="#99744A"/>
</g>
<defs>
<clipPath id="clip0_2052_190">
<rect width="28" height="28" fill="white"/>
</clipPath>
</defs>
</svg>
