<svg width="28" height="28" viewBox="0 0 28 28" fill="none" xmlns="http://www.w3.org/2000/svg">
<path fill-rule="evenodd" clip-rule="evenodd" d="M5.83341 1.16663C4.59574 1.16663 3.40875 1.65829 2.53358 2.53346C1.65841 3.40863 1.16675 4.59562 1.16675 5.83329V22.1666C1.16675 23.4043 1.65841 24.5913 2.53358 25.4665C3.40875 26.3416 4.59574 26.8333 5.83341 26.8333H22.1667C23.4044 26.8333 24.5914 26.3416 25.4666 25.4665C26.3417 24.5913 26.8334 23.4043 26.8334 22.1666V5.83329C26.8334 4.59562 26.3417 3.40863 25.4666 2.53346C24.5914 1.65829 23.4044 1.16663 22.1667 1.16663H5.83341ZM12.3037 8.00096H14.4247V5.87996H12.3037V8.00096ZM14.4247 10.9713H12.3037V8.84912H14.4247V10.9713ZM11.7776 22.12C7.66158 22.12 4.66675 19.453 4.66675 15.4536C4.65741 15.2261 4.88375 15.0091 5.11125 15.0091H17.1116C18.8896 15.0091 19.0097 12.8158 19.0097 12.8158C17.7917 11.1941 19.1672 10.1721 19.1672 10.1721C19.1672 10.1721 21.3792 10.3938 20.9732 12.4238C22.0781 11.9571 22.9111 12.1088 23.3334 13.2311C22.9111 14.3558 21.5974 14.9578 20.4926 14.4876C20.4926 18.746 16.0359 22.12 11.7776 22.12ZM15.2729 13.9416H17.3939V11.8183H15.2729V13.9416ZM14.4247 13.9416H12.3037V11.8183H14.4247V13.9416ZM9.33341 13.9416H11.4544V11.8183H9.33341V13.9416ZM11.4544 10.9713H9.33341V8.84912H11.4544V10.9713ZM6.36425 13.9405H8.48525V11.8195H6.36425V13.9405Z" fill="#99744A"/>
</svg>
