<svg width="28" height="28" viewBox="0 0 28 28" fill="none" xmlns="http://www.w3.org/2000/svg">
<g clip-path="url(#clip0_2052_212)">
<path d="M21.4375 0H6.5625C2.93813 0 0 2.93813 0 6.5625V21.4375C0 25.0619 2.93813 28 6.5625 28H21.4375C25.0619 28 28 25.0619 28 21.4375V6.5625C28 2.93813 25.0619 0 21.4375 0Z" fill="#99744A"/>
<path d="M24.9375 20.0088C24.6191 20.1294 24.2675 20.1292 23.9493 20.0082C23.631 19.8872 23.3681 19.6537 23.2104 19.352C22.2191 17.8681 21.1245 16.4511 20.0724 15.0038L19.6162 14.3957C18.3634 16.0741 17.1106 17.6857 15.9673 19.3581C15.8184 19.6465 15.5698 19.8708 15.2677 19.9894C14.9656 20.108 14.6307 20.1128 14.3254 20.0028L19.0263 13.6963L14.6537 7.99787C14.9685 7.88423 15.3128 7.88268 15.6286 7.99347C15.9444 8.10426 16.2122 8.32061 16.387 8.606C17.4025 10.09 18.5277 11.507 19.6466 13.0091C20.7717 11.5191 21.8846 10.096 22.9246 8.62426C23.0743 8.34057 23.3231 8.12183 23.6236 8.00969C23.9241 7.89756 24.2554 7.89985 24.5544 8.01614L22.8576 10.2663C22.0975 11.2697 21.3495 12.2792 20.5589 13.2584C20.4952 13.3154 20.4442 13.3852 20.4093 13.4633C20.3744 13.5414 20.3564 13.6259 20.3564 13.7115C20.3564 13.797 20.3744 13.8815 20.4093 13.9596C20.4442 14.0377 20.4952 14.1075 20.5589 14.1645C22.0124 16.0924 23.4536 18.0262 24.9375 20.0088ZM3.0625 13.6172C3.19025 13.0091 3.26922 12.3462 3.44564 11.7259C4.49772 7.98584 8.78511 6.42889 11.7346 8.746C13.4618 10.1022 13.8936 12.024 13.8085 14.1889H4.07816C3.92 18.0568 6.71136 20.392 10.2811 19.2001C10.8602 18.9929 11.3786 18.6448 11.7895 18.1872C12.2004 17.7296 12.4909 17.1769 12.6347 16.5789C12.8232 15.9708 13.1273 15.8674 13.705 16.0437C13.6098 16.7841 13.3481 17.4932 12.9394 18.1178C12.5307 18.7425 11.9857 19.2663 11.3455 19.65C10.2876 20.2286 9.07378 20.4579 7.87772 20.305C6.68165 20.1521 5.56458 19.6248 4.68628 18.7987C3.81735 17.8216 3.29195 16.5871 3.19025 15.2836C3.19025 15.0768 3.11117 14.87 3.06862 14.6754C3.0646 14.3227 3.06256 13.97 3.0625 13.6172ZM4.0903 13.3557H12.8902C12.8354 10.5522 11.0657 8.56356 8.70614 8.5454C6.07895 8.50887 4.19978 10.4549 4.08417 13.3436L4.0903 13.3557Z" fill="#414A37"/>
</g>
<defs>
<clipPath id="clip0_2052_212">
<rect width="28" height="28" fill="white"/>
</clipPath>
</defs>
</svg>
