<svg width="28" height="28" viewBox="0 0 28 28" fill="none" xmlns="http://www.w3.org/2000/svg">
<path fill-rule="evenodd" clip-rule="evenodd" d="M5.83329 1.16663C4.59562 1.16663 3.40863 1.65829 2.53346 2.53346C1.65829 3.40863 1.16663 4.59562 1.16663 5.83329V22.1666C1.16663 23.4043 1.65829 24.5913 2.53346 25.4665C3.40863 26.3416 4.59562 26.8333 5.83329 26.8333H22.1666C23.4043 26.8333 24.5913 26.3416 25.4665 25.4665C26.3416 24.5913 26.8333 23.4043 26.8333 22.1666V5.83329C26.8333 4.59562 26.3416 3.40863 25.4665 2.53346C24.5913 1.65829 23.4043 1.16663 22.1666 1.16663H5.83329ZM10.605 4.66663H13.363V10.1815H10.6061C10.2392 10.1891 9.87453 10.1234 9.53335 9.9883C9.19217 9.85319 8.88138 9.65136 8.6192 9.39461C8.35701 9.13787 8.14869 8.83139 8.00645 8.49312C7.86421 8.15485 7.7909 7.7916 7.79082 7.42464C7.79075 7.05768 7.8639 6.69439 8.006 6.35606C8.1481 6.01773 8.35628 5.71116 8.61836 5.45431C8.88044 5.19746 9.19114 4.99549 9.53227 4.86023C9.87339 4.72498 10.2381 4.65916 10.605 4.66663ZM14.2123 10.605V4.66663H17.1815C17.9545 4.6883 18.6886 5.01063 19.2278 5.56509C19.7669 6.11955 20.0685 6.86243 20.0685 7.63579C20.0685 8.40916 19.7669 9.15203 19.2278 9.70649C18.6886 10.261 17.9545 10.5833 17.1815 10.605H14.2123ZM16.9691 16.758C17.7006 16.758 18.4021 16.4674 18.9193 15.9502C19.4366 15.4329 19.7271 14.7314 19.7271 14C19.7271 13.2685 19.4366 12.567 18.9193 12.0498C18.4021 11.5325 17.7006 11.242 16.9691 11.242C16.2377 11.242 15.5361 11.5325 15.0189 12.0498C14.5017 12.567 14.2111 13.2685 14.2111 14C14.2111 14.7314 14.5017 15.4329 15.0189 15.9502C15.5361 16.4674 16.2377 16.758 16.9691 16.758ZM13.3641 16.758V11.242H10.605C9.87349 11.242 9.17198 11.5325 8.65476 12.0498C8.13753 12.567 7.84696 13.2685 7.84696 14C7.84696 14.7314 8.13753 15.4329 8.65476 15.9502C9.17198 16.4674 9.87349 16.758 10.605 16.758H13.3641ZM13.3641 20.5753V17.8185H10.605C10.0594 17.8185 9.52615 17.9802 9.07257 18.2833C8.619 18.5864 8.2655 19.0173 8.05679 19.5213C7.84807 20.0253 7.79353 20.5799 7.90004 21.1149C8.00655 21.65 8.26934 22.1414 8.65517 22.5271C9.041 22.9127 9.53254 23.1753 10.0676 23.2816C10.6027 23.3879 11.1573 23.3331 11.6612 23.1242C12.1651 22.9153 12.5958 22.5616 12.8987 22.1079C13.2016 21.6542 13.3644 21.1208 13.3641 20.5753Z" fill="#99744A"/>
</svg>
