<svg width="28" height="28" viewBox="0 0 28 28" fill="none" xmlns="http://www.w3.org/2000/svg">
<rect width="28" height="28" rx="6" fill="#99744A"/>
<path d="M0 17.5V10.5H1.75V12.8333H4.08333V10.5H5.83333V17.5H4.08333V14.5833H1.75V17.5H0ZM9.04167 17.5V12.25H7V10.5H12.8333V12.25H10.7917V17.5H9.04167ZM14 17.5V11.6667C14 11.3361 14.112 11.0592 14.336 10.836C14.56 10.6128 14.8369 10.5008 15.1667 10.5H20.4167C20.7472 10.5 21.0245 10.612 21.2485 10.836C21.4725 11.06 21.5841 11.3369 21.5833 11.6667V17.5H19.8333V12.25H18.6667V16.3333H16.9167V12.25H15.75V17.5H14ZM23.3333 17.5V10.5H25.0833V15.75H28V17.5H23.3333Z" fill="#414A37"/>
</svg>
