<svg width="37" height="37" viewBox="0 0 37 37" fill="none" xmlns="http://www.w3.org/2000/svg">
<path fill-rule="evenodd" clip-rule="evenodd" d="M26.2083 33.5312C28.1505 33.5312 30.0131 32.7597 31.3864 31.3864C32.7597 30.0131 33.5312 28.1505 33.5312 26.2083V10.7917C33.5312 8.84951 32.7597 6.9869 31.3864 5.61358C30.0131 4.24027 28.1505 3.46875 26.2083 3.46875H10.7917C8.84951 3.46875 6.9869 4.24027 5.61358 5.61358C4.24027 6.9869 3.46875 8.84951 3.46875 10.7917V26.2083C3.46875 28.1505 4.24027 30.0131 5.61358 31.3864C6.9869 32.7597 8.84951 33.5312 10.7917 33.5312H26.2083ZM23.5104 24.6667C23.5104 24.9733 23.6322 25.2674 23.8491 25.4843C24.0659 25.7011 24.36 25.8229 24.6667 25.8229C24.9733 25.8229 25.2674 25.7011 25.4843 25.4843C25.7011 25.2674 25.8229 24.9733 25.8229 24.6667V18.5C25.8229 18.1933 25.7011 17.8992 25.4843 17.6824C25.2674 17.4656 24.9733 17.3437 24.6667 17.3437C24.36 17.3437 24.0659 17.4656 23.8491 17.6824C23.6322 17.8992 23.5104 18.1933 23.5104 18.5V24.6667ZM24.6667 15.0467C24.36 15.0467 24.0659 14.9248 23.8491 14.708C23.6322 14.4912 23.5104 14.1971 23.5104 13.8904V13.875C23.5104 13.5683 23.6322 13.2742 23.8491 13.0574C24.0659 12.8406 24.36 12.7187 24.6667 12.7187C24.9733 12.7187 25.2674 12.8406 25.4843 13.0574C25.7011 13.2742 25.8229 13.5683 25.8229 13.875V13.8904C25.8229 14.1971 25.7011 14.4912 25.4843 14.708C25.2674 14.9248 24.9733 15.0467 24.6667 15.0467ZM9.70942 24.2612C9.65069 24.4045 9.62133 24.558 9.62307 24.7128C9.62482 24.8677 9.65764 25.0205 9.71958 25.1624C9.78153 25.3043 9.87134 25.4323 9.98368 25.5388C10.096 25.6454 10.2286 25.7283 10.3736 25.7826C10.5186 25.8369 10.673 25.8615 10.8277 25.855C10.9824 25.8486 11.1342 25.8111 11.2741 25.7448C11.414 25.6786 11.5392 25.5849 11.6422 25.4693C11.7453 25.3538 11.8241 25.2187 11.8739 25.0721L13.3277 21.1979H17.5056L18.9594 25.0721C19.0104 25.2174 19.0898 25.351 19.1931 25.4652C19.2964 25.5793 19.4215 25.6717 19.561 25.7369C19.7004 25.802 19.8515 25.8387 20.0053 25.8447C20.1592 25.8507 20.3127 25.8259 20.4568 25.7718C20.6009 25.7177 20.7328 25.6354 20.8447 25.5297C20.9566 25.4239 21.0462 25.2969 21.1083 25.156C21.1705 25.0152 21.2039 24.8633 21.2065 24.7094C21.2092 24.5555 21.1811 24.4026 21.1239 24.2597L16.4989 11.9263C16.4161 11.7062 16.2682 11.5165 16.0748 11.3827C15.8814 11.2488 15.6519 11.1771 15.4167 11.1771C15.1815 11.1771 14.9519 11.2488 14.7585 11.3827C14.5651 11.5165 14.4172 11.7062 14.3344 11.9263L9.70942 24.2612ZM15.4167 15.6263L16.6392 18.8854H14.1941L15.4167 15.6263Z" fill="#99744A"/>
</svg>
