<svg width="28" height="28" viewBox="0 0 28 28" fill="none" xmlns="http://www.w3.org/2000/svg">
<g clip-path="url(#clip0_2052_196)">
<path fill-rule="evenodd" clip-rule="evenodd" d="M24.5 0C25.4283 0 26.3185 0.368749 26.9749 1.02513C27.6313 1.6815 28 2.57174 28 3.5V24.5C28 25.4283 27.6313 26.3185 26.9749 26.9749C26.3185 27.6313 25.4283 28 24.5 28H3.5C2.57174 28 1.6815 27.6313 1.02513 26.9749C0.368749 26.3185 0 25.4283 0 24.5V3.5C0 2.57174 0.368749 1.6815 1.02513 1.02513C1.6815 0.368749 2.57174 0 3.5 0L24.5 0ZM15.8428 13.293V18.7652L15.8305 21.8313C15.8305 22.4123 15.722 22.8509 15.505 23.1473C15.288 23.4436 14.9637 23.597 14.532 23.6075C14.133 23.6075 13.825 23.471 13.608 23.198C13.3922 22.925 13.2843 22.526 13.2843 22.001V21.6947H11.1475V22.0185C11.1475 22.7943 11.2951 23.4436 11.5903 23.9662C11.8878 24.4912 12.2978 24.8844 12.8205 25.1458C13.3338 25.4083 13.9265 25.5395 14.5985 25.5395C15.6252 25.5395 16.4453 25.249 17.059 24.668C17.6738 24.087 17.9812 23.2208 17.9812 22.0693L17.9935 19.0033V13.293H15.8428ZM22.5068 13.104C21.8242 13.104 21.2374 13.2463 20.7463 13.531C20.2727 13.8118 19.8881 14.2207 19.6367 14.7105C19.3641 15.2503 19.2288 15.849 19.243 16.4535C19.243 17.332 19.4139 18.0215 19.7557 18.522C20.1092 19.012 20.6733 19.439 21.448 19.803L22.2688 20.1793C22.7798 20.3962 23.1443 20.6471 23.3625 20.9318C23.5783 21.2164 23.6862 21.5868 23.6862 22.043C23.6862 22.6007 23.5894 23.0107 23.3958 23.2733C23.2138 23.5346 22.9063 23.6652 22.4735 23.6652C22.0523 23.6664 21.7332 23.5241 21.5163 23.2383C21.2992 22.9548 21.1797 22.5161 21.1575 21.9223H19.124C19.1473 23.0843 19.4378 23.9732 19.9955 24.5892C20.5543 25.2041 21.3628 25.5115 22.421 25.5115C23.4815 25.5115 24.3081 25.2093 24.9007 24.605C25.4923 24.0018 25.788 23.1362 25.788 22.008C25.788 21.063 25.5943 20.3111 25.207 19.7522C24.8197 19.1934 24.2101 18.7326 23.3783 18.3697L22.5925 18.0267C22.1375 17.8331 21.8132 17.6108 21.6195 17.36C21.4258 17.1103 21.329 16.7743 21.329 16.352C21.329 15.8853 21.4252 15.5377 21.6178 15.309C21.8242 15.0815 22.1206 14.9678 22.5068 14.9678C22.9279 14.9678 23.2243 15.1042 23.3958 15.3772C23.5778 15.6502 23.6804 16.0603 23.7038 16.6075H25.669C25.634 15.4688 25.3435 14.6032 24.7975 14.0105C24.2492 13.4062 23.4856 13.104 22.5068 13.104Z" fill="#99744A"/>
</g>
<defs>
<clipPath id="clip0_2052_196">
<rect width="28" height="28" fill="white"/>
</clipPath>
</defs>
</svg>
