<svg width="40" height="40" viewBox="0 0 40 40" fill="none" xmlns="http://www.w3.org/2000/svg">
<path fill-rule="evenodd" clip-rule="evenodd" d="M19.78 13.0125C16.5275 9.7575 12.4625 8.395 9.28495 7.8375C7.96397 7.60372 6.62632 7.47664 5.28495 7.4575C4.77799 7.45073 4.27096 7.46324 3.76495 7.495L3.67245 7.5025H3.64745L3.63745 7.505H3.63245L2.68245 7.595L2.51995 8.535L2.51745 8.5475L2.51245 8.5775L2.49245 8.69L2.43495 9.0975C2.16505 11.197 2.09473 13.3173 2.22495 15.43C2.46995 19.2075 3.49495 24.015 6.83495 27.355C10.1 30.62 14.08 31.8925 17.185 32.3575C18.5292 32.5592 19.8889 32.6387 21.2475 32.595V30.52L11.615 20.8825L13.385 19.1125L21.25 26.9825V14.815C20.82 14.165 20.33 13.5625 19.78 13.0125ZM23.75 18.25V27.4L27.97 24.025L29.53 25.975L23.75 30.6V32.57C24.6641 32.5809 25.5779 32.5291 26.485 32.415C28.7575 32.1225 31.71 31.31 33.905 29.115C36.12 26.8975 36.9725 23.55 37.31 20.9675C37.5088 19.4109 37.574 17.8402 37.505 16.2725L37.5 16.1925V16.1675L37.4975 16.1625L37.4225 15.155L36.4275 15.0125H36.4175L36.395 15.0075L36.32 14.9975L36.0425 14.965C34.6452 14.8236 33.2386 14.8002 31.8375 14.895C29.395 15.075 26.175 15.7225 24.1 17.885L24 17.985L23.75 18.25Z" fill="#DBC2A6"/>
</svg>
