<svg width="28" height="28" viewBox="0 0 28 28" fill="none" xmlns="http://www.w3.org/2000/svg">
<g clip-path="url(#clip0_2063_359)">
<path d="M21.4375 0H6.5625C2.93813 0 0 2.93813 0 6.5625V21.4375C0 25.0619 2.93813 28 6.5625 28H21.4375C25.0619 28 28 25.0619 28 21.4375V6.5625C28 2.93813 25.0619 0 21.4375 0Z" fill="#99744A"/>
<path d="M18.722 11.7678C17.5695 6.68391 15.1677 5.3305 14.555 4.3738C14.3022 3.95241 14.0783 3.51429 13.885 3.0625C13.8527 3.51422 13.7932 3.79859 13.4093 4.14116C12.6385 4.82836 9.36489 7.49602 9.08937 13.2724C8.83267 18.6583 13.0487 21.9792 13.6057 22.3226C14.034 22.5333 14.5556 22.327 14.8101 22.1336C16.8424 20.7388 19.6192 17.0203 18.7242 11.7678" fill="#414A37"/>
<path d="M14.0596 19.4546C13.9535 20.7877 13.8775 21.5622 13.608 22.324C13.608 22.324 13.7849 23.5931 13.9091 24.9374H14.3487C14.4537 23.9908 14.6138 23.051 14.8282 22.123C14.2591 21.843 14.0815 20.6244 14.0596 19.4546Z" fill="#414A37"/>
<path d="M14.8274 22.1238C14.2523 21.8581 14.086 20.6138 14.0604 19.4546C14.2025 17.5424 14.244 15.6241 14.1846 13.7075C14.1544 12.7019 14.1988 4.39335 13.9369 3.17688C14.116 3.58894 14.3225 3.98854 14.555 4.373C15.1677 5.33047 17.5703 6.68388 18.722 11.7677C19.6192 17.0113 16.8575 20.72 14.8274 22.1238Z" fill="#414A37"/>
</g>
<defs>
<clipPath id="clip0_2063_359">
<rect width="28" height="28" fill="white"/>
</clipPath>
</defs>
</svg>
