<svg width="20" height="20" viewBox="0 0 20 20" fill="none" xmlns="http://www.w3.org/2000/svg">
<path d="M17.7084 10C17.7084 12.0444 16.8963 14.005 15.4507 15.4506C14.0051 16.8962 12.0445 17.7083 10.0001 17.7083V18.9583C14.9476 18.9583 18.9584 14.9475 18.9584 10H17.7084ZM10.0001 17.7083C7.9557 17.7083 5.99506 16.8962 4.54947 15.4506C3.10387 14.005 2.29175 12.0444 2.29175 10H1.04175C1.04175 14.9475 5.05258 18.9583 10.0001 18.9583V17.7083ZM2.29175 10C2.29175 7.95562 3.10387 5.99498 4.54947 4.54939C5.99506 3.10379 7.9557 2.29167 10.0001 2.29167V1.04167C5.05258 1.04167 1.04175 5.0525 1.04175 10H2.29175ZM12.9167 11.875C11.6459 11.875 10.4271 11.3702 9.52853 10.4716C8.62992 9.57294 8.12508 8.35416 8.12508 7.08333H6.87508C6.87508 8.68568 7.51161 10.2224 8.64464 11.3554C9.77768 12.4885 11.3144 13.125 12.9167 13.125V11.875ZM17.0209 9.5575C16.5945 10.2647 15.9926 10.8497 15.2735 11.2558C14.5544 11.6618 13.7426 11.8751 12.9167 11.875V13.125C13.9579 13.1253 14.9815 12.8566 15.8882 12.3448C16.7949 11.833 17.5539 11.0957 18.0917 10.2042L17.0209 9.5575ZM8.12508 7.08333C8.12496 6.25752 8.33827 5.4457 8.74432 4.72661C9.15037 4.00752 9.73537 3.40557 10.4426 2.97917L9.79591 1.90917C8.90454 2.4469 8.16723 3.20584 7.65549 4.11238C7.14374 5.01893 6.87492 6.04232 6.87508 7.08333H8.12508ZM10.0001 2.29167C9.9582 2.29086 9.9169 2.28176 9.87856 2.26488C9.84023 2.248 9.80562 2.22368 9.77675 2.19333C9.74161 2.15805 9.71782 2.11307 9.70841 2.06417C9.70508 2.03833 9.70675 1.96333 9.79591 1.90917L10.4426 2.97917C10.8617 2.72583 10.9967 2.26167 10.9476 1.89667C10.8959 1.5175 10.5976 1.04167 10.0001 1.04167V2.29167ZM18.0917 10.2042C18.0367 10.2933 17.9617 10.295 17.9359 10.2917C17.887 10.2823 17.842 10.2585 17.8067 10.2233C17.7764 10.1945 17.7521 10.1599 17.7352 10.1215C17.7183 10.0832 17.7092 10.0419 17.7084 10H18.9584C18.9584 9.4025 18.4826 9.10417 18.1034 9.0525C17.7384 9.00333 17.2742 9.13833 17.0209 9.5575L18.0917 10.2042Z" fill="#DBC2A6"/>
</svg>
