<svg width="28" height="28" viewBox="0 0 28 28" fill="none" xmlns="http://www.w3.org/2000/svg">
<g clip-path="url(#clip0_2052_222)">
<path d="M21.4375 0H6.5625C2.93813 0 0 2.93813 0 6.5625V21.4375C0 25.0619 2.93813 28 6.5625 28H21.4375C25.0619 28 28 25.0619 28 21.4375V6.5625C28 2.93813 25.0619 0 21.4375 0Z" fill="#99744A"/>
<path d="M19.3082 15.9561C19.1174 15.528 18.8518 15.167 18.5113 14.8728C18.1709 14.5787 17.7711 14.3543 17.312 14.1996C16.8527 14.0449 16.3549 13.9676 15.8186 13.9675C15.6225 13.9675 15.4033 13.9781 15.1608 13.9984C14.9183 14.0194 14.7095 14.0552 14.5341 14.107L14.6424 11.7389H19.115V10.0676H12.8782L12.6923 16.0566C12.8573 15.9742 13.0456 15.8968 13.2572 15.8244C13.4712 15.7515 13.6881 15.6871 13.9072 15.6312C14.1314 15.574 14.3588 15.53 14.5881 15.4995C14.8062 15.4697 15.0259 15.4543 15.2459 15.4533C15.545 15.4533 15.8391 15.4867 16.128 15.5537C16.4169 15.6209 16.6773 15.7396 16.9095 15.9097C17.1417 16.0798 17.3297 16.3044 17.4744 16.5828C17.6188 16.8613 17.691 17.2122 17.691 17.6353C17.691 17.9655 17.6368 18.2621 17.5285 18.5252C17.4203 18.7879 17.2731 19.0075 17.0877 19.1826C16.9019 19.3582 16.6852 19.4923 16.4375 19.585C16.1899 19.6781 15.9268 19.7246 15.6481 19.7245C15.1529 19.7245 14.7248 19.5929 14.3637 19.3297C14.0025 19.0668 13.7446 18.7186 13.5898 18.2851L13.5692 18.2927L12.2252 19.5521C12.497 19.9954 12.8474 20.3663 13.2803 20.6608C13.9096 21.0887 14.6833 21.3031 15.6018 21.3031C16.1486 21.303 16.6644 21.2153 17.1494 21.04C17.6341 20.8648 18.0571 20.612 18.4183 20.2815C18.7794 19.9516 19.0657 19.5467 19.2774 19.0668C19.4887 18.5871 19.5944 18.0428 19.5945 17.4339C19.5946 16.8768 19.4992 16.3845 19.3082 15.9561ZM5.33042 13.5961V14.6328H5.37691C5.46966 14.4885 5.59088 14.3415 5.74058 14.1918C5.89006 14.0424 6.07322 13.9082 6.29008 13.7893C6.50664 13.671 6.75164 13.573 7.02508 13.4953C7.2983 13.4181 7.60553 13.3792 7.94591 13.3792C8.47215 13.3793 8.95704 13.4798 9.40059 13.6809C9.84429 13.8825 10.2261 14.1586 10.5461 14.5091C10.8657 14.8601 11.1133 15.2728 11.2888 15.7473C11.4642 16.2219 11.5519 16.7327 11.552 17.2794C11.552 17.8263 11.4668 18.3396 11.2965 18.8193C11.1264 19.299 10.8836 19.7168 10.5692 20.0728C10.2543 20.4287 9.87277 20.7129 9.42389 20.9239C8.97494 21.1353 8.46682 21.2411 7.89953 21.2412C7.37322 21.2412 6.89087 21.1328 6.4525 20.9162C6.01376 20.6996 5.67586 20.4055 5.43881 20.0339H5.40797V24.7388H3.55078V13.5961H5.33042ZM9.66386 17.2793C9.66386 16.9905 9.62 16.7041 9.53228 16.4202C9.44442 16.1366 9.3128 15.8812 9.13744 15.6542C8.96215 15.4274 8.74033 15.2443 8.472 15.1048C8.20367 14.9655 7.88903 14.8959 7.52809 14.896C7.18757 14.896 6.88322 14.9682 6.61503 15.1127C6.3467 15.2573 6.11712 15.443 5.9263 15.6697C5.73526 15.8968 5.59081 16.1549 5.49295 16.4438C5.39481 16.7327 5.34581 17.0216 5.34595 17.3104C5.34581 17.5994 5.39481 17.8856 5.49295 18.1691C5.58881 18.4492 5.73574 18.709 5.9263 18.9355C6.1171 19.1625 6.35124 19.3492 6.61503 19.4847C6.88315 19.624 7.1875 19.6936 7.52809 19.6935C7.88903 19.6936 8.20367 19.6214 8.472 19.4771C8.74019 19.3325 8.96204 19.1468 9.13755 18.9198C9.31284 18.6929 9.44442 18.435 9.53228 18.146C9.61993 17.8571 9.66379 17.5682 9.66386 17.2793ZM23.195 11.1513L24.3748 10.7952L24.6065 11.508L23.4315 11.9089L24.1609 12.943L23.5461 13.3889L22.7784 12.3729L22.0306 13.3622L21.4336 12.9074L22.1629 11.9089L20.9789 11.4814L21.2109 10.7681L22.3996 11.1512V9.92151H23.1952L23.195 11.1513Z" fill="#414A37"/>
</g>
<defs>
<clipPath id="clip0_2052_222">
<rect width="28" height="28" fill="white"/>
</clipPath>
</defs>
</svg>
