<svg width="37" height="37" viewBox="0 0 37 37" fill="none" xmlns="http://www.w3.org/2000/svg">
<path fill-rule="evenodd" clip-rule="evenodd" d="M33.5312 26.2083C33.5312 28.1505 32.7597 30.0131 31.3864 31.3864C30.0131 32.7597 28.1505 33.5312 26.2083 33.5312H10.7917C8.84951 33.5312 6.9869 32.7597 5.61358 31.3864C4.24027 30.0131 3.46875 28.1505 3.46875 26.2083V10.7917C3.46875 8.84951 4.24027 6.9869 5.61358 5.61358C6.9869 4.24027 8.84951 3.46875 10.7917 3.46875H26.2083C28.1505 3.46875 30.0131 4.24027 31.3864 5.61358C32.7597 6.9869 33.5312 8.84951 33.5312 10.7917V26.2083ZM10.7917 25.8229C10.485 25.8229 10.1909 25.7011 9.97407 25.4843C9.75724 25.2674 9.63542 24.9733 9.63542 24.6667V12.3333C9.63542 12.0267 9.75724 11.7326 9.97407 11.5157C10.1909 11.2989 10.485 11.1771 10.7917 11.1771H13.875C14.9994 11.1771 16.0778 11.6238 16.8728 12.4188C17.6679 13.2139 18.1146 14.2923 18.1146 15.4167C18.1146 16.5411 17.6679 17.6194 16.8728 18.4145C16.0778 19.2096 14.9994 19.6562 13.875 19.6562H11.9479V24.6667C11.9479 24.9733 11.8261 25.2674 11.6093 25.4843C11.3924 25.7011 11.0983 25.8229 10.7917 25.8229ZM11.9479 17.3437H13.875C14.3861 17.3437 14.8763 17.1407 15.2377 16.7793C15.5991 16.4179 15.8021 15.9278 15.8021 15.4167C15.8021 14.9056 15.5991 14.4154 15.2377 14.054C14.8763 13.6926 14.3861 13.4896 13.875 13.4896H11.9479V17.3437ZM25.1739 17.4748C25.241 17.6118 25.3345 17.7343 25.4492 17.835C25.5638 17.9357 25.6972 18.0127 25.8418 18.0616C25.9863 18.1105 26.1391 18.1304 26.2914 18.1199C26.4436 18.1095 26.5923 18.069 26.7288 18.0009C26.8653 17.9327 26.987 17.8382 27.0869 17.7228C27.1867 17.6074 27.2627 17.4733 27.3105 17.3284C27.3582 17.1835 27.3769 17.0305 27.3652 16.8784C27.3536 16.7262 27.312 16.5779 27.2428 16.4419C26.9149 15.7863 26.411 15.2349 25.7875 14.8497C25.1639 14.4644 24.4454 14.2603 23.7124 14.2604H23.125C22.205 14.2604 21.3227 14.6259 20.6722 15.2764C20.0217 15.9269 19.6562 16.8092 19.6562 17.7292C19.6562 18.6491 20.0217 19.5314 20.6722 20.1819C21.3227 20.8325 22.205 21.1979 23.125 21.1979H23.8958C24.2025 21.1979 24.4966 21.3197 24.7134 21.5366C24.9303 21.7534 25.0521 22.0475 25.0521 22.3542C25.0521 22.6608 24.9303 22.9549 24.7134 23.1718C24.4966 23.3886 24.2025 23.5104 23.8958 23.5104H23.3069C23.0039 23.5102 22.7068 23.4258 22.449 23.2665C22.1912 23.1073 21.9828 22.8795 21.847 22.6085C21.7086 22.3366 21.4683 22.1305 21.1785 22.0349C20.8888 21.9394 20.573 21.9623 20.3 22.0986C20.0271 22.2348 19.819 22.4735 19.7213 22.7625C19.6235 23.0515 19.6439 23.3674 19.778 23.6415C20.1058 24.2968 20.6095 24.848 21.2327 25.2333C21.856 25.6186 22.5742 25.8227 23.3069 25.8229H23.8958C24.8158 25.8229 25.6981 25.4575 26.3486 24.8069C26.9991 24.1564 27.3646 23.2741 27.3646 22.3542C27.3646 21.4342 26.9991 20.5519 26.3486 19.9014C25.6981 19.2509 24.8158 18.8854 23.8958 18.8854H23.125C22.8183 18.8854 22.5242 18.7636 22.3074 18.5468C22.0906 18.3299 21.9687 18.0358 21.9687 17.7292C21.9687 17.4225 22.0906 17.1284 22.3074 16.9116C22.5242 16.6947 22.8183 16.5729 23.125 16.5729H23.7139C24.3306 16.5729 24.8979 16.9229 25.1739 17.4748Z" fill="#99744A"/>
</svg>
