<svg width="28" height="28" viewBox="0 0 28 28" fill="none" xmlns="http://www.w3.org/2000/svg">
<g clip-path="url(#clip0_2052_202)">
<path d="M21.4375 0H6.5625C2.93813 0 0 2.93813 0 6.5625V21.4375C0 25.0619 2.93813 28 6.5625 28H21.4375C25.0619 28 28 25.0619 28 21.4375V6.5625C28 2.93813 25.0619 0 21.4375 0Z" fill="#99744A"/>
<path d="M5.37666 10.9644H8.48378C9.39575 10.9721 10.0566 11.2349 10.4663 11.7528C10.876 12.2706 11.0112 12.9778 10.8721 13.8744C10.818 14.2841 10.6982 14.686 10.5127 15.0802C10.3349 15.4744 10.0876 15.8299 9.77069 16.1468C9.38423 16.5487 8.97072 16.8037 8.53016 16.912C8.08952 17.0202 7.6335 17.0743 7.16209 17.0743H5.77084L5.33028 19.2771H3.71875L5.37666 10.9644ZM6.73312 12.2861L6.0375 15.7642C6.08387 15.7719 6.13025 15.7758 6.17662 15.7758H6.33894C7.08101 15.7835 7.69934 15.7101 8.19394 15.5555C8.6886 15.3932 9.02096 14.829 9.191 13.8628C9.33012 13.0513 9.191 12.5837 8.77362 12.46C8.36398 12.3364 7.84999 12.2784 7.23166 12.2861C7.13898 12.2938 7.05009 12.2977 6.965 12.2977H6.72153L6.73312 12.2861ZM12.7078 8.75H14.3078L13.8556 10.9644H15.2933C16.0816 10.9799 16.669 11.1422 17.0555 11.4513C17.4497 11.7605 17.5656 12.3479 17.4033 13.2136L16.6265 17.0743H15.0034L15.7454 13.3875C15.8226 13.001 15.7994 12.7267 15.6758 12.5643C15.5522 12.402 15.2856 12.3209 14.8759 12.3209L13.589 12.3093L12.6383 17.0743H11.0383L12.7078 8.75ZM19.1214 10.9644H22.2285C23.1405 10.9721 23.8013 11.2349 24.211 11.7528C24.6207 12.2706 24.7559 12.9778 24.6168 13.8744C24.5627 14.2841 24.4429 14.686 24.2574 15.0802C24.0796 15.4744 23.8323 15.8299 23.5154 16.1468C23.1289 16.5487 22.7154 16.8037 22.2749 16.912C21.8342 17.0202 21.3782 17.0743 20.9068 17.0743H19.5156L19.075 19.2771H17.4635L19.1214 10.9644ZM20.4778 12.2861L19.7822 15.7642C19.8286 15.7719 19.875 15.7758 19.9213 15.7758H20.0837C20.8257 15.7835 21.4441 15.7101 21.9387 15.5555C22.4333 15.3932 22.7657 14.829 22.9357 13.8628C23.0748 13.0513 22.9357 12.5837 22.5183 12.46C22.1087 12.3364 21.5947 12.2784 20.9764 12.2861C20.8836 12.2938 20.7947 12.2977 20.7097 12.2977H20.4662L20.4778 12.2861Z" fill="#414A37"/>
</g>
<defs>
<clipPath id="clip0_2052_202">
<rect width="28" height="28" fill="white"/>
</clipPath>
</defs>
</svg>
