<svg width="32" height="32" viewBox="0 0 32 32" fill="none" xmlns="http://www.w3.org/2000/svg">
<g clip-path="url(#clip0_2063_369)">
<path d="M24.5 0H7.5C3.35786 0 0 3.35786 0 7.5V24.5C0 28.6421 3.35786 32 7.5 32H24.5C28.6421 32 32 28.6421 32 24.5V7.5C32 3.35786 28.6421 0 24.5 0Z" fill="#99744A"/>
<path d="M25.435 18.586C22.895 19.1098 22.7105 18.2494 22.7105 18.2494C25.3937 14.2679 26.5161 9.21414 25.5475 7.97751C22.9074 4.60251 18.3361 6.19951 18.2596 6.24088L18.235 6.24526C17.6767 6.13321 17.109 6.07403 16.5396 6.06851C15.39 6.05101 14.5181 6.37001 13.8555 6.87188C13.8555 6.87188 5.70098 3.51276 6.0806 11.0969C6.16148 12.7105 8.39223 23.3136 11.0552 20.1056C12.0361 18.9261 12.9765 17.9355 12.9765 17.9355C13.4424 18.2458 14.0022 18.404 14.5885 18.3469L14.6341 18.3083C14.6207 18.4602 14.6269 18.6132 14.6526 18.7635C13.9671 19.5299 14.1692 19.6644 12.7981 19.9465C11.4112 20.2321 12.2269 20.741 12.7577 20.8746C13.4029 21.0364 14.8952 21.2649 15.9042 19.8534L15.8637 20.0141C16.1327 20.2295 16.3207 21.4143 16.2891 22.4883C16.2575 23.5624 16.2364 24.2989 16.4474 24.8754C16.6584 25.4519 16.8692 26.7475 18.671 26.3695C20.1766 26.047 20.9561 25.2094 21.066 23.8155C21.1434 22.824 21.3174 22.9699 21.3297 22.084L21.4704 21.6639C21.6311 20.3191 21.4966 19.8859 22.4239 20.088L22.6497 20.1083C23.3327 20.139 24.2266 19.9984 24.7504 19.7549C25.8797 19.2311 26.5495 18.3556 25.4359 18.586H25.435Z" fill="#99744A"/>
<path d="M18.2587 6.07444C17.9774 6.16232 22.7974 4.31232 25.5378 7.81294C26.5047 9.04957 25.3841 14.1033 22.7007 18.0847M16.0122 19.2229C15.9419 21.7243 16.0298 24.2432 16.2742 24.8479C16.5184 25.4526 17.0432 26.6497 18.8458 26.2647C20.3514 25.9422 20.8998 25.3172 21.1372 23.9382L21.6934 19.5288L16.0122 19.2229ZM13.8519 6.68357C13.8519 6.68357 5.69207 3.34732 6.07182 10.9312C6.15269 12.5448 8.38331 23.1479 11.0464 19.9399C12.0184 18.7683 12.8974 17.8517 12.8974 17.8517L13.8519 6.68357Z" stroke="#414A37" stroke-width="0.314625" stroke-linecap="round" stroke-linejoin="round"/>
<path d="M22.7017 18.083C22.7017 18.083 22.8775 18.9444 25.4263 18.4187C26.5399 18.1885 25.8693 19.0639 24.7408 19.5877C23.8144 20.0184 21.7366 20.1282 21.7024 19.535C21.6145 18.0012 22.7958 18.4671 22.7105 18.083C22.6331 17.7367 22.104 17.3975 21.756 16.5502C21.451 15.8119 17.5724 10.143 22.8318 10.984C23.0252 10.9445 21.4606 5.97437 16.5388 5.90224C11.6169 5.83012 11.7725 11.9535 11.7725 11.9535" stroke="#414A37" stroke-width="0.314625" stroke-linecap="round" stroke-linejoin="bevel"/>
<path d="M14.635 18.6086C13.9495 19.375 14.1517 19.5095 12.7807 19.7916C11.3937 20.0772 12.2094 20.5861 12.7402 20.7197C13.3853 20.8815 14.8777 21.11 15.8867 19.6975C16.1943 19.2669 15.8849 18.5814 15.463 18.4074C15.2592 18.323 14.9867 18.2175 14.6369 18.6095L14.635 18.6086Z" stroke="#414A37" stroke-width="0.314625" stroke-linejoin="round"/>
<path d="M14.5903 18.5954C14.5199 18.1445 14.7379 17.6092 14.9708 16.9817C15.3207 16.0414 16.1275 15.1009 15.4824 12.1152C15.0017 9.89148 11.7734 11.652 11.7734 11.9535C11.7734 12.255 11.9193 13.4829 11.7207 14.911C11.4597 16.7761 12.9072 18.3529 14.5735 18.192" stroke="#414A37" stroke-width="0.314625" stroke-linecap="round" stroke-linejoin="round"/>
<path d="M13.8221 11.9088C13.8071 12.0115 14.0109 12.2867 14.2756 12.3235C14.5401 12.3605 14.7659 12.146 14.7809 12.0423C14.7958 11.9385 14.5919 11.826 14.3274 11.7892C14.0629 11.7523 13.8352 11.8068 13.8221 11.9088Z" fill="#414A37" stroke="#414A37" stroke-width="0.105"/>
<path d="M21.8764 11.6987C21.8904 11.8014 21.6874 12.0764 21.4229 12.1134C21.1582 12.1503 20.9306 11.9359 20.9175 11.8322C20.9042 11.7284 21.1065 11.6159 21.371 11.5791C21.6355 11.5422 21.8631 11.5967 21.8764 11.6987Z" fill="#414A37" stroke="#414A37" stroke-width="0.0523125"/>
<path d="M22.8221 10.9858C22.866 11.7945 22.648 12.3437 22.6198 13.2042C22.5795 14.454 23.2158 15.8848 22.2568 17.3175" stroke="#414A37" stroke-width="0.314625" stroke-linecap="round" stroke-linejoin="round"/>
</g>
<defs>
<clipPath id="clip0_2063_369">
<rect width="32" height="32" fill="white"/>
</clipPath>
</defs>
</svg>
