<svg width="28" height="28" viewBox="0 0 28 28" fill="none" xmlns="http://www.w3.org/2000/svg">
<g clip-path="url(#clip0_2052_232)">
<path d="M21.4375 0H6.5625C2.93813 0 0 2.93813 0 6.5625V21.4375C0 25.0619 2.93813 28 6.5625 28H21.4375C25.0619 28 28 25.0619 28 21.4375V6.5625C28 2.93813 25.0619 0 21.4375 0Z" fill="#99744A"/>
<path d="M13.9211 3.17188C8.36795 3.17188 8.71467 5.58009 8.71467 5.58009L8.72091 8.07494H14.0202V8.82416H6.61598C6.61598 8.82416 3.0625 8.421 3.0625 14.0242C3.0625 19.6273 6.16405 19.4288 6.16405 19.4288H8.01511V16.8287C8.01511 16.8287 7.91536 13.7271 11.0672 13.7271H16.3231C16.3231 13.7271 19.2761 13.7748 19.2761 10.8731V6.07534C19.2761 6.07534 19.7245 3.17188 13.9211 3.17188ZM10.9991 4.84958C11.1243 4.84948 11.2483 4.87407 11.3641 4.92195C11.4798 4.96983 11.5849 5.04005 11.6735 5.1286C11.762 5.21716 11.8323 5.3223 11.8801 5.43802C11.928 5.55374 11.9526 5.67777 11.9525 5.803C11.9526 5.92822 11.928 6.05224 11.8801 6.16794C11.8322 6.28365 11.762 6.38878 11.6734 6.47732C11.5849 6.56587 11.4797 6.63608 11.364 6.68395C11.2483 6.73182 11.1243 6.75641 10.9991 6.75631C10.8739 6.7564 10.7499 6.7318 10.6342 6.68392C10.5185 6.63604 10.4133 6.56583 10.3248 6.47729C10.2363 6.38875 10.166 6.28362 10.1182 6.16792C10.0703 6.05222 10.0457 5.92822 10.0458 5.803C10.0457 5.67778 10.0703 5.55376 10.1181 5.43805C10.166 5.32233 10.2362 5.2172 10.3248 5.12864C10.4133 5.04009 10.5184 4.96986 10.6341 4.92198C10.7498 4.87409 10.8739 4.84949 10.9991 4.84958Z" fill="#414A37"/>
<path d="M14.0788 24.9329C19.632 24.9329 19.2853 22.5248 19.2853 22.5248L19.2791 20.0299H13.9797V19.2808H21.384C21.384 19.2808 24.9375 19.6838 24.9375 14.0805C24.9375 8.47725 21.8359 8.67598 21.8359 8.67598H19.9849V11.2762C19.9849 11.2762 20.0846 14.3777 16.9328 14.3777H11.6769C11.6769 14.3777 8.72373 14.3299 8.72373 17.2316V22.0295C8.72373 22.0295 8.2754 24.9329 14.0788 24.9329ZM17.0009 23.2552C16.8757 23.2553 16.7517 23.2307 16.6359 23.1829C16.5202 23.135 16.4151 23.0648 16.3265 22.9762C16.238 22.8877 16.1678 22.7826 16.1199 22.6669C16.072 22.5512 16.0474 22.4271 16.0475 22.3019C16.0474 22.1767 16.072 22.0527 16.1198 21.9369C16.1677 21.8212 16.238 21.7161 16.3265 21.6275C16.4151 21.539 16.5202 21.4687 16.6359 21.4209C16.7516 21.373 16.8757 21.3484 17.0009 21.3485C17.1261 21.3484 17.2502 21.373 17.3659 21.4209C17.4816 21.4687 17.5867 21.539 17.6753 21.6275C17.7638 21.7161 17.8341 21.8212 17.882 21.9369C17.9298 22.0527 17.9544 22.1767 17.9543 22.3019C17.9544 22.4271 17.9298 22.5512 17.8819 22.6669C17.834 22.7826 17.7638 22.8877 17.6753 22.9762C17.5867 23.0648 17.4816 23.135 17.3659 23.1829C17.2501 23.2307 17.1261 23.2553 17.0009 23.2552Z" fill="#414A37"/>
</g>
<defs>
<clipPath id="clip0_2052_232">
<rect width="28" height="28" fill="white"/>
</clipPath>
</defs>
</svg>
