<svg width="28" height="28" viewBox="0 0 28 28" fill="none" xmlns="http://www.w3.org/2000/svg">
<g clip-path="url(#clip0_2052_244)">
<path d="M21.4375 0H6.5625C2.93813 0 0 2.93813 0 6.5625V21.4375C0 25.0619 2.93813 28 6.5625 28H21.4375C25.0619 28 28 25.0619 28 21.4375V6.5625C28 2.93813 25.0619 0 21.4375 0Z" fill="#99744A"/>
<path d="M14.0001 16.0728C15.1271 16.0728 16.0406 15.1592 16.0406 14.0323C16.0406 12.9054 15.1271 11.9918 14.0001 11.9918C12.8731 11.9918 11.9596 12.9054 11.9596 14.0323C11.9596 15.1592 12.8732 16.0728 14.0001 16.0728Z" fill="#414A37"/>
<path d="M14.0002 9.88342C16.7398 9.88342 19.2849 10.2765 21.2039 10.9373C23.516 11.7332 24.9375 12.9397 24.9375 14.0322C24.9375 15.1707 23.431 16.4525 20.948 17.2751C19.071 17.897 16.6008 18.2216 14.0002 18.2216C11.3339 18.2216 8.80895 17.9169 6.91064 17.2682C4.50898 16.4473 3.0625 15.1491 3.0625 14.0322C3.0625 12.9485 4.41984 11.7513 6.69944 10.9566C8.62553 10.285 11.2334 9.88342 13.9998 9.88342H14.0002Z" stroke="#414A37" stroke-width="0.556938"/>
<path d="M10.3886 11.9698C11.7573 9.59656 13.3692 7.58822 14.9002 6.25603C16.7447 4.65073 18.5002 4.02205 19.4465 4.56772C20.4327 5.13647 20.7905 7.08203 20.2627 9.64381C19.8641 11.5805 18.911 13.8824 17.6117 16.1353C16.2796 18.4451 14.7544 20.4801 13.2442 21.8001C11.3334 23.4705 9.4859 24.075 8.51848 23.517C7.57972 22.9761 7.22075 21.2019 7.67115 18.8301C8.05167 16.826 9.00662 14.3663 10.3881 11.9698H10.3886Z" stroke="#414A37" stroke-width="0.556938"/>
<path d="M10.3919 16.1413C9.01934 13.7707 8.08484 11.3708 7.69481 9.37907C7.22527 6.97927 7.55722 5.1445 8.50277 4.59719C9.48812 4.02669 11.3522 4.68841 13.308 6.42507C14.7868 7.738 16.3053 9.71299 17.6082 11.9637C18.9441 14.2713 19.9454 16.6092 20.3348 18.5766C20.8277 21.0664 20.4288 22.9688 19.4622 23.5283C18.5245 24.0712 16.8083 23.4964 14.9783 21.9216C13.4322 20.5912 11.778 18.5355 10.3919 16.1413Z" stroke="#414A37" stroke-width="0.556938"/>
</g>
<defs>
<clipPath id="clip0_2052_244">
<rect width="28" height="28" fill="white"/>
</clipPath>
</defs>
</svg>
