<svg width="28" height="28" viewBox="0 0 28 28" fill="none" xmlns="http://www.w3.org/2000/svg">
<rect width="28" height="28" rx="5" fill="#99744A"/>
<path d="M14.1497 16.3625C13.7289 16.5559 13.2677 16.8079 12.3446 17.3145C11.9946 17.5114 11.6289 17.7083 11.2885 17.8938C11.2649 17.8702 11.2404 17.8404 11.2167 17.8159C9.39061 15.8647 6.01311 14.4865 6.15661 11.8659C6.20999 10.9113 6.53811 8.40528 12.643 5.36203C17.6672 2.88578 21.6651 3.57178 22.3555 5.0934C23.3477 7.26253 20.2126 11.2989 15.0239 11.8843C14.4496 12.0007 13.8565 11.9866 13.2884 11.843C12.7203 11.6994 12.1917 11.4301 11.7417 11.0548C11.467 10.7564 11.4259 10.7389 11.3244 10.7984C11.1572 10.8859 11.2649 11.1563 11.3244 11.3112C11.5223 11.6695 11.7901 11.9845 12.1118 12.2376C12.4336 12.4907 12.8028 12.6767 13.1977 12.7847C15.2396 13.226 17.3686 13.0151 19.2842 12.1818C22.429 10.9647 24.8842 7.58103 24.165 4.74428C23.4431 1.86815 18.6691 0.919651 14.1524 2.5244C11.3237 3.47762 8.71033 4.97817 6.46111 6.94053C3.97261 9.26803 3.57886 11.291 3.73986 12.138C4.31911 15.1454 8.46486 17.1028 10.1274 18.5527C10.041 18.5993 9.96549 18.641 9.90074 18.6778C9.07124 19.0899 5.90899 20.7428 5.12061 22.491C4.22549 24.472 5.26411 25.8922 5.95011 26.0829C6.98391 26.3308 8.06934 26.2495 9.05469 25.8504C10.04 25.4513 10.8761 24.7544 11.446 23.8569C11.9301 23.1129 12.2274 22.2629 12.3125 21.3793C12.3977 20.4958 12.2682 19.6047 11.9351 18.7819C12.1316 18.625 12.3412 18.4854 12.5616 18.3645C12.9851 18.1143 13.3885 17.8675 13.7464 17.6768C14.9719 17.1035 16.309 16.808 17.662 16.8114C20.5022 17.1457 21.0631 18.9175 20.9555 19.6639C20.905 19.9287 20.7984 20.1795 20.643 20.3997C20.4875 20.6199 20.2868 20.8043 20.0542 20.9405C19.8574 21.0657 19.7917 21.1077 19.8092 21.1969C19.8329 21.3282 19.9282 21.322 20.0954 21.2984C20.5221 21.1635 20.898 20.9027 21.1738 20.5503C21.4496 20.1978 21.6123 19.7702 21.6406 19.3235C21.7281 17.5735 20.0595 15.6538 17.1055 15.6713C16.2211 15.6738 15.3456 15.8483 14.5277 16.1849C14.3965 16.2392 14.269 16.2975 14.1454 16.3599L14.1497 16.3625ZM9.92786 23.2217C8.98461 24.248 7.67211 24.6357 7.10511 24.3075C6.49261 23.9575 6.73499 22.4394 7.89261 21.3535C8.57766 20.7351 9.31877 20.1817 10.1064 19.7007C10.2437 19.6132 10.4467 19.4977 10.6909 19.3507L10.7565 19.3148L10.9 19.2273C11.1063 19.9195 11.125 20.6541 10.9542 21.3559C10.7833 22.0578 10.4292 22.7016 9.92786 23.2217Z" fill="#414A37"/>
</svg>
