<svg width="32" height="32" viewBox="0 0 32 32" fill="none" xmlns="http://www.w3.org/2000/svg">
<g clip-path="url(#clip0_2063_380)">
<path d="M24.5 0H7.5C3.35786 0 0 3.35786 0 7.5V24.5C0 28.6421 3.35786 32 7.5 32H24.5C28.6421 32 32 28.6421 32 24.5V7.5C32 3.35786 28.6421 0 24.5 0Z" fill="#99744A"/>
<mask id="mask0_2063_380" style="mask-type:luminance" maskUnits="userSpaceOnUse" x="4" y="4" width="24" height="24">
<path d="M4.75 4.75H27.25V27.25H4.75V4.75Z" fill="white"/>
</mask>
<g mask="url(#mask0_2063_380)">
<path fill-rule="evenodd" clip-rule="evenodd" d="M25.4752 22.2763C24.2514 22.2423 23.3021 22.3676 22.5064 22.7024C22.2773 22.7944 21.9097 22.7944 21.8794 23.0828C22.0019 23.2038 22.0167 23.4018 22.1241 23.5695C22.3074 23.8739 22.6292 24.2839 22.9197 24.4966L23.8989 25.1964C24.4957 25.561 25.1689 25.7741 25.7503 26.1391C26.0871 26.3521 26.4236 26.6259 26.7603 26.8543C26.9318 26.9759 27.0357 27.174 27.2501 27.2496V27.2036C27.1431 27.0673 27.1122 26.8696 27.0056 26.7169L26.5459 26.2761C26.1026 25.6831 25.5513 25.1656 24.9546 24.7403C24.4648 24.4056 23.3941 23.9495 23.1951 23.3871L23.1649 23.353C23.5011 23.319 23.8989 23.2006 24.2206 23.1094C24.7412 22.973 25.2152 23.003 25.7503 22.8663L26.4853 22.6533V22.5169C26.2098 22.2433 26.0109 21.8781 25.7204 21.6199C24.9402 20.9508 24.0827 20.2966 23.1951 19.7493C22.7208 19.4453 22.1086 19.2471 21.6037 18.9891C21.4196 18.8978 21.1139 18.8521 21.0069 18.7001C20.7308 18.3661 20.5782 17.9246 20.3793 17.529L19.1247 14.883C18.8493 14.2899 18.6806 13.6968 18.3444 13.1494C16.7681 10.564 15.0539 8.99789 12.4219 7.46164C11.8561 7.14227 11.1828 7.00489 10.4669 6.83789L9.31942 6.77664C9.07417 6.67027 8.82955 6.38114 8.6153 6.24414C7.74305 5.69664 5.49355 4.51064 4.8503 6.07377C4.43717 7.06214 5.46267 8.03527 5.8108 8.53739C6.07142 8.88714 6.40755 9.28239 6.59167 9.67789C6.69455 9.93627 6.72892 10.2103 6.8363 10.484C7.0808 11.153 7.31055 11.8985 7.63192 12.5223C7.80342 12.8416 7.98355 13.1766 8.1978 13.4654C8.3203 13.6358 8.53467 13.7088 8.5803 13.9824C8.36592 14.2868 8.35117 14.7425 8.22867 15.1233C7.67755 16.8418 7.89192 18.9708 8.67217 20.236C8.91742 20.616 9.4953 21.4528 10.2794 21.1331C10.968 20.8594 10.8144 19.9926 11.0133 19.2321C11.0595 19.0499 11.0288 18.9281 11.1203 18.8061V18.8403L11.7479 20.1024C12.2223 20.8475 13.0489 21.6233 13.7372 22.1406C14.1042 22.4144 14.3951 22.8861 14.8539 23.0531V23.0071H14.8238C14.7318 22.8708 14.5939 22.8094 14.4715 22.703C14.1962 22.4294 13.8902 22.0946 13.6758 21.7906C13.0334 20.9391 12.4675 19.996 11.9623 19.0229C11.7172 18.5515 11.5028 18.0344 11.3045 17.563C11.2119 17.3804 11.2119 17.1063 11.0593 17.0156C10.8294 17.3496 10.4934 17.6394 10.3243 18.0498C10.0334 18.7035 10.0033 19.5096 9.8963 20.3461C9.83455 20.3614 9.86192 20.3461 9.83455 20.3801C9.34542 20.2589 9.17667 19.7564 8.9933 19.331C8.5343 18.2513 8.45742 16.5176 8.8553 15.2705C8.9623 14.9511 9.42192 13.9474 9.23842 13.6433C9.14592 13.3543 8.84055 13.1873 8.6718 12.9589C8.47292 12.6699 8.2593 12.3051 8.12142 11.9858C7.75442 11.1336 7.57092 10.1911 7.17267 9.33952C6.98855 8.94402 6.66755 8.53327 6.40717 8.16864C6.1163 7.75789 5.79567 7.46877 5.56592 6.98239C5.48942 6.81202 5.38242 6.54139 5.5048 6.35864C5.53505 6.23702 5.59667 6.18827 5.71855 6.16102C5.9173 5.99052 6.48405 6.20664 6.68292 6.29727C7.2488 6.52564 7.72317 6.73839 8.19755 7.05739C8.41192 7.20939 8.64167 7.49852 8.91705 7.57489H9.2388C9.72855 7.68114 10.279 7.60889 10.7375 7.74527C11.5488 8.00427 12.283 8.38402 12.9415 8.79502C14.9459 10.0573 16.5991 11.8518 17.7157 13.9964C17.8992 14.3461 17.9757 14.6655 18.1444 15.0305C18.4662 15.776 18.8641 16.5361 19.1847 17.2665C19.5064 17.9813 19.8123 18.7118 20.2713 19.3048C20.5011 19.6241 21.4188 19.7911 21.8318 19.9585C22.1381 20.0949 22.6121 20.2176 22.8882 20.3846C23.4081 20.704 23.9284 21.069 24.4178 21.4188C24.6623 21.6008 25.4279 21.9811 25.4734 22.2845L25.4752 22.2763ZM9.8698 9.06089C9.65844 9.05908 9.44773 9.08462 9.24292 9.13689V9.17102H9.27305C9.39555 9.41439 9.60992 9.58177 9.7628 9.79477L10.115 10.5248L10.1453 10.4908C10.3595 10.3388 10.4669 10.0954 10.4669 9.73077C10.375 9.62439 10.3599 9.51764 10.2834 9.41127C10.1915 9.25927 9.99267 9.18289 9.8698 9.06164V9.06089Z" fill="#414A37"/>
</g>
</g>
<defs>
<clipPath id="clip0_2063_380">
<rect width="32" height="32" fill="white"/>
</clipPath>
</defs>
</svg>
